#!OML:ASF F:\VICON\USERDATA\INSTALL\rory3\rory3.ASF
:FULLY-SPECIFIED
:DEGREES
33
root 1.86671 14.7538 -15.4636 16.9027 -4.49132 -8.36018
lowerback 1.27678 -2.7312 5.16299
upperback -4.572 -3.15824 6.88468
thorax -5.37901 -1.64071 4.50016
lowerneck -18.8463 2.90178 -2.65326
upperneck 9.13469 5.01087 -3.35199
head 5.84475 2.05419 -0.132116
rclavicle 1.51076e-014 1.43125e-014
rhumerus -4.38853 51.1941 -76.4779
rradius 87.3759
rwrist 15.9629
rhand -23.5071 -47.3866
rfingers 7.12502
rthumb 2.95338 -77.3458
lclavicle 1.51076e-014 1.43125e-014
lhumerus 32.366 -39.1196 56.675
lradius 86.9275
lwrist 17.8197
lhand -23.4361 -28.5246
lfingers 7.12502
lthumb 3.02199 1.43377
rfemur -67.5773 12.6897 34.5069
rtibia 72.7632
rfoot -14.4718 -9.73896
rtoes -1.6776
lfemur -42.8086 13.8502 -13.14
ltibia 109.413
lfoot -8.3116 0.58795
ltoes 0.826234
34
root 1.84241 14.8268 -15.1028 17.2651 -4.56512 -5.97813
lowerback 1.24569 -2.56056 3.23738
upperback -4.72443 -3.03657 6.02075
thorax -5.45583 -1.51633 4.65507
lowerneck -18.3982 2.59521 -2.99879
upperneck 8.72379 4.59925 -2.99871
head 5.62266 1.88799 -0.0170484
rclavicle -3.05134e-014 2.3059e-014
rhumerus 3.2919 51.3715 -71.8004
rradius 86.4374
rwrist 15.5004
rhand -22.5032 -45.4987
rfingers 7.12502
rthumb 3.92284 -75.4424
lclavicle -3.05134e-014 2.3059e-014
lhumerus 36.1234 -38.2159 52.3851
lradius 86.4111
lwrist 19.4947
lhand -23.9712 -28.7075
lfingers 7.12502
lthumb 2.50514 1.2575
rfemur -67.1976 11.579 32.2005
rtibia 73.2234
rfoot -15.863 -9.67666
rtoes -2.80449
lfemur -50.1232 11.4549 -16.6129
ltibia 111.496
lfoot -6.38541 0.689716
ltoes 3.76101
35
root 1.83554 14.9252 -14.7451 16.6036 -3.73859 -6.70166
lowerback 2.64175 -2.35536 5.02547
upperback -4.38712 -2.58818 5.75155
thorax -6.02591 -1.37303 3.40827
lowerneck -18.7807 2.14455 -3.13983
upperneck 8.71712 3.988 -2.55952
head 5.66778 1.61745 0.0878109
rclavicle -3.74709e-014 1.05753e-013
rhumerus 11.1456 50.7962 -66.8007
rradius 85.187
rwrist 14.9792
rhand -23.2068 -45.1601
rfingers 7.12502
rthumb 3.24335 -75.1152
lclavicle -3.74709e-014 1.05753e-013
lhumerus 40.246 -37.2871 47.6252
lradius 86.0997
lwrist 20.7918
lhand -27.0442 -24.4234
lfingers 7.12502
lthumb -0.462756 5.55581
rfemur -64.4038 10.4565 33.5662
rtibia 72.9094
rfoot -17.3198 -10.0656
rtoes -4.65754
lfemur -55.8302 9.88302 -15.3229
ltibia 113.168
lfoot -7.23325 0.126171
ltoes 0.904356
36
root 1.8337 15.0068 -14.39 15.9592 -3.14984 -6.86958
lowerback 3.68372 -2.11932 5.76033
upperback -3.94847 -2.15862 5.69106
thorax -6.2034 -1.18939 2.93273
lowerneck -19.1536 1.63505 -3.53807
upperneck 8.67043 3.39508 -2.36844
head 5.70389 1.32814 0.154978
rclavicle -5.50634e-014 3.26007e-014
rhumerus 19.454 49.9453 -60.8047
rradius 83.9129
rwrist 14.039
rhand -23.6091 -44.8633
rfingers 7.12502
rthumb 2.85483 -74.8239
lclavicle -5.50634e-014 3.26007e-014
lhumerus 43.6605 -35.4678 44.27
lradius 85.0298
lwrist 22.4776
lhand -28.4157 -26.3313
lfingers 7.12502
lthumb -1.78736 3.64097
rfemur -61.9031 9.33608 34.2511
rtibia 72.6696
rfoot -18.0214 -10.4801
rtoes -6.79926
lfemur -61.4049 8.23118 -14.6404
ltibia 114.379
lfoot -7.3889 -0.390468
ltoes 1.36977
37
root 1.81128 15.1114 -14.0327 15.8114 -2.80642 -6.61744
lowerback 3.96967 -1.83014 5.73642
upperback -3.84026 -1.75518 5.60036
thorax -6.25664 -0.989405 2.81999
lowerneck -18.2989 1.15801 -4.02174
upperneck 8.38781 2.79399 -2.15067
head 5.47139 1.05169 0.232838
rclavicle -1.37161e-014 2.38542e-014
rhumerus 25.2926 48.5093 -56.6732
rradius 82.0921
rwrist 13.5843
rhand -23.5348 -43.3645
rfingers 7.12502
rthumb 2.92667 -73.3242
lclavicle -1.37161e-014 2.38542e-014
lhumerus 46.2002 -33.8856 41.4353
lradius 84.04
lwrist 23.9877
lhand -28.672 -28.1369
lfingers 7.12502
lthumb -2.0349 1.83311
rfemur -59.8358 8.62642 34.3478
rtibia 72.0261
rfoot -19.6202 -10.8098
rtoes -5.94889
lfemur -67.2378 6.62181 -14.3549
ltibia 114.976
lfoot -7.13987 -0.690956
ltoes 1.90181
38
root 1.78931 15.1848 -13.6738 16.2561 -2.41551 -6.22214
lowerback 4.56275 -1.51084 5.35158
upperback -4.39577 -1.25105 5.64841
thorax -7.18587 -0.730948 3.08485
lowerneck -17.4783 0.829022 -4.44856
upperneck 8.79062 2.4397 -2.2647
head 5.46957 0.852076 0.227731
rclavicle -1.11319e-014 1.90833e-014
rhumerus 30.7694 47.53 -52.1183
rradius 80.3516
rwrist 13.0937
rhand -22.1426 -42.4564
rfingers 7.12502
rthumb 4.27111 -72.3933
lclavicle -1.11319e-014 1.90833e-014
lhumerus 47.7176 -32.6058 39.4484
lradius 83.0114
lwrist 25.2654
lhand -28.5289 -29.1009
lfingers 7.12502
lthumb -1.8967 0.870371
rfemur -58.5874 8.11028 34.2176
rtibia 71.4254
rfoot -20.2474 -11.3095
rtoes -7.85231
lfemur -73.9869 5.17553 -14.2259
ltibia 115.501
lfoot -7.96367 -0.440361
ltoes -3.93647
39
root 1.78415 15.3438 -13.3213 17.1524 -1.69538 -5.44532
lowerback 3.57532 -1.31988 5.95641
upperback -4.10269 -1.10979 4.88807
thorax -6.32699 -0.700034 1.88101
lowerneck -18.4705 0.360322 -4.38133
upperneck 9.10868 1.81834 -1.90717
head 5.73212 0.564545 0.275276
rclavicle -2.56432e-014 2.3059e-014
rhumerus 37.5038 45.0036 -47.3986
rradius 78.3888
rwrist 12.8688
rhand -22.6826 -43.9652
rfingers 7.12502
rthumb 3.74966 -73.912
lclavicle -2.56432e-014 2.3059e-014
lhumerus 50.5407 -30.03 35.8385
lradius 81.7599
lwrist 26.0914
lhand -27.728 -30.3688
lfingers 7.12502
lthumb -1.12325 -0.39201
rfemur -57.4098 7.10365 33.6653
rtibia 70.2134
rfoot -20.4238 -11.8858
rtoes -10.4815
lfemur -80.5804 2.73204 -14.3058
ltibia 115.115
lfoot -7.31672 -0.0267822
ltoes -5.78125
